<svg width="15" height="11" viewBox="0 0 15 11" fill="none" xmlns="http://www.w3.org/2000/svg">
<path d="M7.30113 2.85369L2.5002 6.58256V10.6071C2.5002 10.7113 2.54409 10.8112 2.62223 10.8849C2.70036 10.9586 2.80633 11 2.91683 11L5.83484 10.9929C5.94497 10.9924 6.05041 10.9507 6.1281 10.8771C6.20578 10.8035 6.24939 10.7038 6.24939 10.6V8.24969C6.24939 8.14549 6.29328 8.04555 6.37142 7.97187C6.44955 7.89819 6.55552 7.85679 6.66602 7.85679H8.33256C8.44306 7.85679 8.54903 7.89819 8.62717 7.97187C8.7053 8.04555 8.7492 8.14549 8.7492 8.24969V10.5983C8.74902 10.65 8.75967 10.7012 8.78053 10.749C8.8014 10.7968 8.83206 10.8403 8.87076 10.8769C8.90947 10.9135 8.95546 10.9425 9.00609 10.9624C9.05672 10.9822 9.11101 10.9924 9.16583 10.9924L12.0828 11C12.1933 11 12.2993 10.9586 12.3774 10.8849C12.4555 10.8112 12.4994 10.7113 12.4994 10.6071V6.57986L7.69954 2.85369C7.64311 2.81079 7.57281 2.7874 7.50033 2.7874C7.42785 2.7874 7.35756 2.81079 7.30113 2.85369ZM14.8847 5.38815L12.7077 3.69597V0.294676C12.7077 0.216523 12.6748 0.141571 12.6162 0.0863086C12.5576 0.0310462 12.4781 0 12.3953 0H10.937C10.8542 0 10.7747 0.0310462 10.7161 0.0863086C10.6575 0.141571 10.6246 0.216523 10.6246 0.294676V2.07771L8.29324 0.268892C8.06951 0.0952734 7.78877 0.000347065 7.49903 0.000347065C7.20929 0.000347065 6.92855 0.0952734 6.70482 0.268892L0.113402 5.38815C0.081761 5.41281 0.0555827 5.44311 0.0363633 5.47732C0.017144 5.51152 0.00526021 5.54897 0.00139108 5.58751C-0.00247805 5.62605 0.00174327 5.66493 0.0138138 5.70193C0.0258844 5.73893 0.0455677 5.77332 0.0717389 5.80315L0.73575 6.56439C0.76185 6.59432 0.793953 6.6191 0.830222 6.63731C0.86649 6.65553 0.906211 6.66682 0.947112 6.67054C0.988013 6.67425 1.02929 6.67033 1.06858 6.65898C1.10787 6.64764 1.1444 6.6291 1.17608 6.60442L7.30113 1.84688C7.35756 1.80399 7.42785 1.7806 7.50033 1.7806C7.57281 1.7806 7.64311 1.80399 7.69954 1.84688L13.8248 6.60442C13.8565 6.6291 13.8929 6.64766 13.9322 6.65905C13.9714 6.67043 14.0126 6.67441 14.0535 6.67076C14.0944 6.66711 14.1341 6.6559 14.1704 6.63778C14.2066 6.61966 14.2388 6.59497 14.2649 6.56513L14.9289 5.80388C14.9551 5.77389 14.9747 5.73931 14.9866 5.70215C14.9985 5.66499 15.0026 5.62597 14.9984 5.58734C14.9943 5.5487 14.9822 5.51122 14.9626 5.47703C14.9431 5.44285 14.9166 5.41264 14.8847 5.38815Z" fill="white"/>
</svg>
