<svg width="14" height="12" viewBox="0 0 14 12" fill="none" xmlns="http://www.w3.org/2000/svg">
<path d="M1.3125 0C1.05291 0 0.799154 0.0812063 0.583315 0.23335C0.367475 0.385493 0.199249 0.601741 0.0999087 0.854746C0.000568688 1.10775 -0.0254232 1.38615 0.0252199 1.65474C0.075863 1.92333 0.200867 2.17004 0.384423 2.36369C0.567979 2.55733 0.801845 2.6892 1.05644 2.74263C1.31104 2.79605 1.57494 2.76863 1.81477 2.66383C2.0546 2.55903 2.25959 2.38157 2.4038 2.15387C2.54802 1.92617 2.625 1.65847 2.625 1.38462C2.625 1.01739 2.48672 0.66521 2.24058 0.405544C1.99444 0.145879 1.6606 0 1.3125 0ZM1.3125 4.61538C1.05291 4.61538 0.799154 4.69659 0.583315 4.84873C0.367475 5.00088 0.199249 5.21712 0.0999087 5.47013C0.000568688 5.72314 -0.0254232 6.00154 0.0252199 6.27012C0.075863 6.53871 0.200867 6.78543 0.384423 6.97907C0.567979 7.17271 0.801845 7.30458 1.05644 7.35801C1.31104 7.41144 1.57494 7.38402 1.81477 7.27922C2.0546 7.17442 2.25959 6.99695 2.4038 6.76925C2.54802 6.54155 2.625 6.27385 2.625 6C2.625 5.63278 2.48672 5.28059 2.24058 5.02093C1.99444 4.76126 1.6606 4.61538 1.3125 4.61538ZM1.3125 9.23077C1.05291 9.23077 0.799154 9.31197 0.583315 9.46412C0.367475 9.61626 0.199249 9.83251 0.0999087 10.0855C0.000568688 10.3385 -0.0254232 10.6169 0.0252199 10.8855C0.075863 11.1541 0.200867 11.4008 0.384423 11.5945C0.567979 11.7881 0.801845 11.92 1.05644 11.9734C1.31104 12.0268 1.57494 11.9994 1.81477 11.8946C2.0546 11.7898 2.25959 11.6123 2.4038 11.3846C2.54802 11.1569 2.625 10.8892 2.625 10.6154C2.625 10.2482 2.48672 9.89598 2.24058 9.63631C1.99444 9.37665 1.6606 9.23077 1.3125 9.23077ZM13.5625 9.69231H4.8125C4.69647 9.69231 4.58519 9.74093 4.50314 9.82749C4.42109 9.91404 4.375 10.0314 4.375 10.1538V11.0769C4.375 11.1993 4.42109 11.3167 4.50314 11.4033C4.58519 11.4898 4.69647 11.5385 4.8125 11.5385H13.5625C13.6785 11.5385 13.7898 11.4898 13.8719 11.4033C13.9539 11.3167 14 11.1993 14 11.0769V10.1538C14 10.0314 13.9539 9.91404 13.8719 9.82749C13.7898 9.74093 13.6785 9.69231 13.5625 9.69231ZM13.5625 0.461538H4.8125C4.69647 0.461538 4.58519 0.510165 4.50314 0.59672C4.42109 0.683275 4.375 0.800669 4.375 0.923077V1.84615C4.375 1.96856 4.42109 2.08596 4.50314 2.17251C4.58519 2.25907 4.69647 2.30769 4.8125 2.30769H13.5625C13.6785 2.30769 13.7898 2.25907 13.8719 2.17251C13.9539 2.08596 14 1.96856 14 1.84615V0.923077C14 0.800669 13.9539 0.683275 13.8719 0.59672C13.7898 0.510165 13.6785 0.461538 13.5625 0.461538ZM13.5625 5.07692H4.8125C4.69647 5.07692 4.58519 5.12555 4.50314 5.2121C4.42109 5.29866 4.375 5.41605 4.375 5.53846V6.46154C4.375 6.58395 4.42109 6.70134 4.50314 6.7879C4.58519 6.87445 4.69647 6.92308 4.8125 6.92308H13.5625C13.6785 6.92308 13.7898 6.87445 13.8719 6.7879C13.9539 6.70134 14 6.58395 14 6.46154V5.53846C14 5.41605 13.9539 5.29866 13.8719 5.2121C13.7898 5.12555 13.6785 5.07692 13.5625 5.07692Z" fill="white"/>
</svg>
