<svg width="15" height="12" viewBox="0 0 15 12" fill="none" xmlns="http://www.w3.org/2000/svg">
<path d="M14.7924 6.22118L9.79215 11.2214C9.3457 11.6679 8.57185 11.3554 8.57185 10.7155V7.85817H4.52403C4.12818 7.85817 3.80971 7.5397 3.80971 7.14384V4.28656C3.80971 3.89071 4.12818 3.57224 4.52403 3.57224H8.57185V0.714954C8.57185 0.0780178 9.34272 -0.237474 9.79215 0.208977L14.7924 5.20922C15.0692 5.489 15.0692 5.9414 14.7924 6.22118ZM5.71457 11.0726V9.88208C5.71457 9.68564 5.55385 9.52492 5.35741 9.52492H2.85728C2.33047 9.52492 1.90486 9.0993 1.90486 8.57249V2.85792C1.90486 2.33111 2.33047 1.90549 2.85728 1.90549H5.35741C5.55385 1.90549 5.71457 1.74477 5.71457 1.54833V0.357794C5.71457 0.161355 5.55385 0.000633025 5.35741 0.000633025H2.85728C1.27983 0.000633025 0 1.28046 0 2.85792V8.57249C0 10.1499 1.27983 11.4298 2.85728 11.4298H5.35741C5.55385 11.4298 5.71457 11.269 5.71457 11.0726Z" fill="white"/>
</svg>
